<svg xmlns="http://www.w3.org/2000/svg" width="480" height="320" viewBox="0 0 480 320" role="img" aria-label="No matching problems" ><title>No matching problems</title><path d="M39 259Q160 209 280 249Q373 229 441 266H39Z" fill="#E5F6EE" opacity=".8"/><g transform="translate(81 248) scale(0.64)"><path d="M0 0C-24 0-29-21-17-32C-24-47-10-57 0-51C12-63 29-48 22-34C41-17 23 3 0 0Z" fill="#A8D4C1"/><path d="M2 14V-33M2-12L-10-23M2-4L15-18" stroke="#5E9A82" stroke-opacity=".5" stroke-width="1.4" fill="none" stroke-linecap="round"/></g><g transform="translate(394 250) scale(0.72)"><path d="M0 0C-24 0-29-21-17-32C-24-47-10-57 0-51C12-63 29-48 22-34C41-17 23 3 0 0Z" fill="#A8D4C1"/><path d="M2 14V-33M2-12L-10-23M2-4L15-18" stroke="#5E9A82" stroke-opacity=".5" stroke-width="1.4" fill="none" stroke-linecap="round"/></g><g transform="translate(364 253) scale(0.4)"><path d="M0 0C-24 0-29-21-17-32C-24-47-10-57 0-51C12-63 29-48 22-34C41-17 23 3 0 0Z" fill="#CEE9DC"/><path d="M2 14V-33M2-12L-10-23M2-4L15-18" stroke="#5E9A82" stroke-opacity=".5" stroke-width="1.4" fill="none" stroke-linecap="round"/></g><path d="M101 90C92 76 76 81 74 93C60 92 57 108 72 110H111C123 101 115 89 101 90ZM389 68C382 54 365 58 363 71C349 67 341 85 357 90H397C407 80 400 67 389 68Z" fill="#E5F6EE" opacity=".7"/><circle cx="226" cy="147" r="56" fill="#FFFFFF" stroke="#123C32" stroke-width="4"/><circle cx="226" cy="147" r="42" fill="#E5F6EE" opacity=".4"/><path d="M266 188L310 232" stroke="#123C32" stroke-width="8" stroke-linecap="round"/><path d="M206 171V145L224 131L244 145V171M214 172V157H232V172" fill="none" stroke="#8FBFA9" stroke-width="2.5" stroke-linejoin="round"/><path d="M204 134C204 117 214 110 232 109C229 123 219 131 204 134Z" fill="#4FD1A1" opacity=".25"/></svg>
